HIERARCHY
ROOT Hips
{
 OFFSET 0.000000 0.000000 0.000000
 CHANNELS 6 Xposition Yposition Zposition Yrotation Xrotation Zrotation
 JOINT Chest
 {
  OFFSET 0.000000 9.588913 -0.003946
  CHANNELS 3 Yrotation Xrotation Zrotation
  JOINT Chest2
  {
   OFFSET 0.000000 9.541882 0.008053
   CHANNELS 3 Yrotation Xrotation Zrotation
   JOINT Chest3
   {
    OFFSET 0.000000 9.501360 0.000000
    CHANNELS 3 Yrotation Xrotation Zrotation
    JOINT Chest4
    {
     OFFSET 0.000000 9.491660 0.000000
     CHANNELS 3 Yrotation Xrotation Zrotation
     JOINT Neck
     {
      OFFSET 0.000000 14.331917 0.000000
      CHANNELS 3 Yrotation Xrotation Zrotation
      JOINT Head
      {
       OFFSET 0.000000 8.884799 0.017034
       CHANNELS 3 Yrotation Xrotation Zrotation
       End Site
       {
        OFFSET 0.000000 16.896195 0.008993
       }
      }
     }
     JOINT RightCollar
     {
      OFFSET -2.923010 9.499495 0.000000
      CHANNELS 3 Yrotation Xrotation Zrotation
      JOINT RightShoulder
      {
       OFFSET -13.795216 0.000000 0.000000
       CHANNELS 3 Yrotation Xrotation Zrotation
       JOINT RightElbow
       {
        OFFSET -30.272209 0.000000 0.000000
        CHANNELS 3 Yrotation Xrotation Zrotation
        JOINT RightWrist
        {
         OFFSET -24.478199 0.000000 0.000000
         CHANNELS 3 Yrotation Xrotation Zrotation
         End Site
         {
          OFFSET -18.090752 0.000000 0.000000
         }
        }
       }
      }
     }
     JOINT LeftCollar
     {
      OFFSET 2.923010 9.499495 0.000000
      CHANNELS 3 Yrotation Xrotation Zrotation
      JOINT LeftShoulder
      {
       OFFSET 13.795216 0.000000 0.000000
       CHANNELS 3 Yrotation Xrotation Zrotation
       JOINT LeftElbow
       {
        OFFSET 30.272209 0.000000 0.000000
        CHANNELS 3 Yrotation Xrotation Zrotation
        JOINT LeftWrist
        {
         OFFSET 24.478199 0.000000 0.000000
         CHANNELS 3 Yrotation Xrotation Zrotation
         End Site
         {
          OFFSET 18.090752 0.000000 0.000000
         }
        }
       }
      }
     }
    }
   }
  }
 }
 JOINT RightHip
 {
  OFFSET -7.826875 0.019532 0.001973
  CHANNELS 3 Yrotation Xrotation Zrotation
  JOINT RightKnee
  {
   OFFSET 0.000000 -40.546152 -0.001885
   CHANNELS 3 Yrotation Xrotation Zrotation
   JOINT RightAnkle
   {
    OFFSET 0.000000 -39.417092 -0.003189
    CHANNELS 3 Yrotation Xrotation Zrotation
    JOINT RightToe
    {
     OFFSET 0.000000 -7.579396 17.243563
     CHANNELS 3 Yrotation Xrotation Zrotation
     End Site
     {
      OFFSET 0.000000 -1.500329 6.694466
     }
    }
   }
  }
 }
 JOINT LeftHip
 {
  OFFSET 7.826875 0.019532 0.001973
  CHANNELS 3 Yrotation Xrotation Zrotation
  JOINT LeftKnee
  {
   OFFSET 0.000000 -40.546152 -0.001885
   CHANNELS 3 Yrotation Xrotation Zrotation
   JOINT LeftAnkle
   {
    OFFSET 0.000000 -39.417092 -0.003189
    CHANNELS 3 Yrotation Xrotation Zrotation
    JOINT LeftToe
    {
     OFFSET 0.000000 -7.579396 17.243563
     CHANNELS 3 Yrotation Xrotation Zrotation
     End Site
     {
      OFFSET 0.000000 -1.500329 6.694466
     }
    }
   }
  }
 }
}
MOTION
Frames: 7
Frame Time: 0.008333
6.163354 89.189655 -25.325142 -133.439870 -5.131532 -0.630362 0.311584 0.617878 -0.542810 0.175072 0.352018 -0.291194 0.218562 0.440161 -0.363827 0.175072 0.352018 -0.291194 1.306263 23.212350 0.615295 2.192396 7.311188 0.770429 -3.547969 0.847327 -3.221177 -1.689933 4.883487 95.364362 4.472888 -4.840490 3.645154 3.505290 -3.609182 0.100876 2.912607 1.447669 3.927257 -2.897126 2.645352 -91.820250 0.954572 3.253849 -2.648240 -1.836652 -2.582495 2.145303 -7.727010 7.776011 0.377215 -0.964874 0.280408 -1.168024 -7.329291 -3.037387 1.436953 -0.019501 -0.056125 -0.016358 3.685687 7.400227 -0.404899 -0.687767 0.914409 0.507436 4.761760 -3.506772 0.565962 0.023349 0.043285 0.011318
6.167598 89.188600 -25.341147 -133.478713 -5.134302 -0.626374 0.307615 0.622500 -0.539905 0.172915 0.354414 -0.289481 0.215864 0.443154 -0.361685 0.172915 0.354414 -0.289481 1.314489 23.218786 0.608713 2.208901 7.323263 0.756547 -3.535463 0.857017 -3.208566 -1.671403 4.864554 95.384576 4.557002 -5.173338 3.732852 3.557767 -3.658954 0.099895 2.917447 1.446389 3.924822 -2.845081 2.645769 -91.805361 0.768125 3.215873 -2.668928 -1.844395 -2.569724 2.148934 -7.719805 7.772814 0.378905 -0.971110 0.295148 -1.157133 -7.306469 -3.044110 1.421963 -0.019150 -0.056689 -0.015400 3.691066 7.406085 -0.400050 -0.695432 0.925788 0.513568 4.791450 -3.520388 0.547164 0.020817 0.043255 0.012525
6.171075 89.187485 -25.357304 -133.514269 -5.137513 -0.622457 0.301663 0.627883 -0.536165 0.169456 0.357580 -0.287731 0.211541 0.447108 -0.359500 0.169456 0.357580 -0.287731 1.322925 23.223718 0.600061 2.226317 7.332577 0.738868 -3.515987 0.864653 -3.192506 -1.642388 4.847802 95.403872 4.652781 -5.531881 3.824294 3.611362 -3.709731 0.112356 2.928287 1.445568 3.920516 -2.798989 2.643015 -91.793135 0.568641 3.168800 -2.687720 -1.842897 -2.553110 2.151218 -7.717676 7.770688 0.374917 -0.978399 0.311394 -1.145348 -7.255044 -3.052813 1.407757 -0.016617 -0.056858 -0.012528 3.696933 7.414041 -0.397845 -0.709101 0.934042 0.522081 4.828521 -3.531773 0.530927 0.018945 0.042861 0.011561
6.173729 89.186328 -25.373729 -133.546551 -5.142361 -0.619244 0.293751 0.633495 -0.530525 0.164688 0.361329 -0.285628 0.205580 0.451789 -0.356875 0.164688 0.361329 -0.285628 1.330909 23.228594 0.589374 2.243443 7.341814 0.717643 -3.492056 0.872894 -3.175975 -1.602825 4.834322 95.420718 4.769555 -5.920979 3.929279 3.660314 -3.763731 0.146835 2.942125 1.448566 3.911271 -2.764346 2.637869 -91.780427 0.345757 3.107989 -2.707407 -1.828198 -2.527742 2.153628 -7.717622 7.771915 0.362927 -0.986446 0.328027 -1.131877 -7.165767 -3.062851 1.395920 -0.011386 -0.057230 -0.007779 3.702893 7.425366 -0.396298 -0.719646 0.938967 0.529838 4.866414 -3.541415 0.518406 0.017954 0.042474 0.009465
6.175206 89.185127 -25.390133 -133.575856 -5.149408 -0.614479 0.284255 0.640041 -0.525262 0.159271 0.365553 -0.283178 0.198807 0.457064 -0.353815 0.159271 0.365553 -0.283178 1.337535 23.233676 0.577416 2.258450 7.351449 0.694485 -3.467834 0.881911 -3.158565 -1.562439 4.823922 95.431479 4.909331 -6.340150 4.056722 3.703244 -3.826215 0.210834 2.954626 1.456987 3.896690 -2.732863 2.631395 -91.764046 0.089118 3.046957 -2.731490 -1.807234 -2.498746 2.160582 -7.718148 7.775459 0.351537 -0.994891 0.344718 -1.117576 -7.094316 -3.073354 1.382135 -0.008233 -0.057275 -0.004009 3.708057 7.440037 -0.394612 -0.723265 0.942570 0.535797 4.888988 -3.550386 0.507824 0.016477 0.041988 0.006755
6.175508 89.183865 -25.406440 -133.604888 -5.158190 -0.608198 0.276864 0.648175 -0.520695 0.155294 0.370455 -0.280529 0.193835 0.463187 -0.350507 0.155294 0.370455 -0.280529 1.340615 23.238283 0.565317 2.267109 7.360187 0.671983 -3.447510 0.891367 -3.137127 -1.540002 4.815773 95.431169 5.070178 -6.780411 4.211288 3.748239 -3.897978 0.306632 2.959001 1.469644 3.878902 -2.684360 2.628681 -91.741064 -0.214411 3.012941 -2.761572 -1.789069 -2.470302 2.168618 -7.718988 7.780947 0.343879 -1.001946 0.359767 -1.101808 -7.058503 -3.082809 1.363905 -0.007873 -0.056906 -0.001622 3.713484 7.456658 -0.393932 -0.721562 0.947048 0.540134 4.905295 -3.560280 0.498208 0.014587 0.041439 0.004683
6.174961 89.182502 -25.422492 -133.633875 -5.166079 -0.601648 0.272368 0.656985 -0.515324 0.152941 0.375779 -0.277632 0.190893 0.469839 -0.346885 0.152941 0.375779 -0.277632 1.340240 23.241990 0.552934 2.269623 7.367239 0.649847 -3.431558 0.901709 -3.111991 -1.540687 4.811674 95.415218 5.255222 -7.234263 4.399931 3.810354 -3.977645 0.424122 2.954057 1.485986 3.856210 -2.594618 2.638626 -91.705153 -0.581163 3.032657 -2.795152 -1.776410 -2.433307 2.161435 -7.719642 7.787263 0.333651 -1.006997 0.372036 -1.082942 -7.025527 -3.091014 1.344694 -0.007161 -0.056301 0.000560 3.719382 7.471791 -0.394278 -0.716044 0.953354 0.543062 4.922802 -3.571719 0.488596 0.012703 0.041051 0.004284
